# xmcd
#
# Track frame offsets:
#	150
#	14040
#	25042
#	38862
#	55947
#	64592
#	74582
#	90067
#	102507
#	115890
#	130422
#	140857
#	150722
#	162057
#	178567
#	188487
#	201200
#	212537
#
# Disc length: 2997 seconds
#
# Revision: 0
# Processed by: cddbd v1.4PL0 Copyright (c) Steve Scherf et al.
# Submitted via: MusicWizard 6.0.2
#
DISCID=f90bb312
DTITLE=Tina Turner - Selection Of Tina Turner CD2
DYEAR=1995
DGENRE=Blues
TTITLE0=A Love Like Yours
TTITLE1=Flee Flee Flee
TTITLE2=Tina's Prayer
TTITLE3=I Smell Trouble
TTITLE4=Chicken Shack
TTITLE5=I Don't Need
TTITLE6=If This Is Our Last Time
TTITLE7=So Fine
TTITLE8=Freedom To Stay
TTITLE9=It Sho Ain't Me
TTITLE10=Hard Times
TTITLE11=Beauty Is Only Skin Deep
TTITLE12=Raise Your Hand
TTITLE13=Mississippi Rolling Stone
TTITLE14=Please Love Me
TTITLE15=Shame, Shame, Shame
TTITLE16=Down In The Valley
TTITLE17=Oh Baby!
EXTD=
EXTT0=
EXTT1=
EXTT2=
EXTT3=
EXTT4=
EXTT5=
EXTT6=
EXTT7=
EXTT8=
EXTT9=
EXTT10=
EXTT11=
EXTT12=
EXTT13=
EXTT14=
EXTT15=
EXTT16=
EXTT17=
PLAYORDER=
